<svg width="129" height="100" viewBox="0 0 129 100" fill="none" xmlns="http://www.w3.org/2000/svg">
<path d="M1.29991 97.7748C1.89726 98.5215 2.66638 99.1126 3.54164 99.4977C4.4169 99.8827 5.37233 100.05 6.32639 99.9861C7.28046 99.922 8.20483 99.6279 9.02065 99.1291C9.83646 98.6303 10.5195 97.9416 11.0115 97.1216L19.9285 82.26L20.0526 82.1855C23.4796 80.1293 27.32 78.8585 31.2971 78.4647C35.2743 78.0709 39.2893 78.5638 43.0531 79.908H43.0531C55.3644 84.3049 68.7944 84.4478 81.1964 80.3138L81.1965 80.3138C89.6412 77.4989 97.2673 72.6572 103.407 66.2124C109.548 59.7676 114.015 51.9162 116.418 43.3452L128.57 0.000244141L114.67 7.90663C107.865 11.7775 100.334 14.2017 92.5488 15.0273C84.7634 15.8529 76.8914 15.0622 69.4258 12.7046L69.4258 12.7046C63.7275 10.9052 57.679 10.5085 51.7945 11.5484C45.9101 12.5882 40.3638 15.0339 35.6274 18.6773L35.6274 18.6773C31.3973 21.9311 27.919 26.0591 25.4295 30.7797C22.9401 35.5002 21.4982 40.7021 21.2021 46.0307L20.2388 63.371C20.0341 67.0559 19.077 70.6599 17.4265 73.9609L15.4941 77.8257L2.02524 89.6109C0.876154 90.6164 0.15937 92.0264 0.0242478 93.5473C-0.110875 95.0682 0.346086 96.5826 1.29991 97.7748V97.7748Z" fill="#A0CC00"/>
<path d="M68.5996 66.8682C68.2535 67.2821 67.7628 67.5487 67.2271 67.6136C66.6915 67.6785 66.1513 67.5368 65.7164 67.2175C61.9569 64.4758 57.629 62.6148 53.0529 61.7721C48.4769 60.9295 43.7699 61.1267 39.2804 62.3493L29.3933 65.0423C29.1246 65.1155 28.844 65.1351 28.5677 65.0998C28.2914 65.0646 28.0248 64.9752 27.7831 64.8369C27.5413 64.6985 27.3292 64.5139 27.1588 64.2936C26.9884 64.0732 26.8631 63.8215 26.7901 63.5527L26.7393 63.3657C26.5918 62.8233 26.6658 62.2445 26.945 61.7566C27.2242 61.2687 27.6857 60.9117 28.2281 60.764L38.1136 58.0714C43.2495 56.6726 48.6343 56.4478 53.8688 57.4137C59.1034 58.3797 64.0533 60.5115 68.3517 63.6511C68.585 63.8226 68.7807 64.0401 68.9268 64.2901C69.0729 64.5401 69.1662 64.8173 69.2011 65.1048C69.2359 65.3922 69.2116 65.6837 69.1294 65.9614C69.0473 66.2391 68.9093 66.497 68.7237 66.7192L68.5996 66.8682Z" fill="#85B200"/>
<path d="M93.0214 51.3381C92.7336 51.8014 92.2778 52.1354 91.7495 52.2705C91.2211 52.4055 90.6609 52.3311 90.1861 52.0627C79.6206 46.0123 67.2177 44.0035 55.2826 46.4097L48.545 47.7573C48.5001 47.7663 48.4555 47.7767 48.4112 47.7886L42.0903 49.4854C41.5472 49.6312 40.9685 49.5553 40.4814 49.2743C39.9943 48.9934 39.6387 48.5305 39.4929 47.9874L39.4426 47.8001C39.3704 47.5311 39.3519 47.2506 39.3881 46.9746C39.4243 46.6985 39.5146 46.4323 39.6537 46.1911C39.7928 45.9499 39.978 45.7384 40.1989 45.5688C40.4197 45.3992 40.6717 45.2748 40.9407 45.2026L47.331 43.4872L47.6043 43.4232L54.413 42.0614C67.3894 39.445 80.8743 41.6262 92.3643 48.1999C92.6139 48.341 92.8324 48.531 93.0067 48.7587C93.1809 48.9863 93.3074 49.2469 93.3784 49.5247C93.4494 49.8024 93.4634 50.0917 93.4198 50.3751C93.3761 50.6584 93.2756 50.93 93.1242 51.1735L93.0214 51.3381Z" fill="#85B200"/>
<path d="M99.5367 41.5308C97.2159 41.5302 94.898 41.3648 92.6007 41.0358L86.1302 40.1115L73.5206 38.2081C72.9646 38.1242 72.4647 37.8228 72.1308 37.3703C71.797 36.9178 71.6566 36.3512 71.7405 35.7952L71.7695 35.6036C71.811 35.3283 71.9064 35.0639 72.0501 34.8254C72.1939 34.587 72.3832 34.3791 72.6073 34.2138C72.8313 34.0485 73.0858 33.929 73.356 33.862C73.6263 33.7951 73.9071 33.782 74.1824 33.8236L86.7747 35.7243L93.2278 36.6458C98.2518 37.3687 103.363 37.221 108.337 36.209C108.87 36.1037 109.423 36.2077 109.881 36.4994C110.339 36.791 110.667 37.248 110.797 37.7753L110.844 37.9628C110.913 38.2418 110.925 38.5319 110.879 38.8156C110.833 39.0993 110.73 39.3707 110.576 39.6133C110.422 39.856 110.22 40.065 109.983 40.2276C109.746 40.3901 109.479 40.503 109.197 40.5592C106.017 41.2049 102.781 41.5304 99.5367 41.5308V41.5308Z" fill="#85B200"/>
<path d="M34.602 51.2746C34.1325 51.5828 33.5599 51.692 33.0099 51.5785C32.4599 51.4649 31.9774 51.1377 31.6684 50.6688L30.8417 49.4144C28.4657 45.8761 27.5577 41.5529 28.3094 37.3576C28.363 37.0578 28.4805 36.773 28.654 36.5226C28.8274 36.2722 29.0527 36.0621 29.3146 35.9065C29.5764 35.7509 29.8687 35.6535 30.1715 35.6209C30.4744 35.5882 30.7807 35.6211 31.0697 35.7174L31.2549 35.7791C31.7404 35.9446 32.1501 36.2792 32.4092 36.7218C32.6683 37.1644 32.7596 37.6854 32.6664 38.1897C32.1359 41.2424 32.8039 44.3821 34.5311 46.9545L35.0761 47.7719L35.3768 48.23C35.5296 48.4628 35.635 48.7233 35.6871 48.9969C35.7392 49.2704 35.7369 49.5515 35.6803 49.8241C35.6237 50.0968 35.514 50.3556 35.3574 50.5858C35.2008 50.816 35.0004 51.0132 34.7676 51.1659L34.602 51.2746Z" fill="#85B200"/>
<path d="M51.0651 43.2124H50.8712C50.3089 43.2124 49.7696 42.989 49.372 42.5914C48.9744 42.1938 48.751 41.6545 48.751 41.0922V32.6075C48.7461 27.7392 49.9876 22.9507 52.3573 18.698C52.4994 18.4411 52.6931 18.2163 52.9264 18.0379C53.1597 17.8595 53.4273 17.7314 53.7126 17.6617C53.9978 17.5919 54.2944 17.582 54.5837 17.6326C54.8729 17.6832 55.1485 17.7931 55.3932 17.9555L55.5554 18.0637C55.9995 18.3617 56.315 18.8161 56.4387 19.3364C56.5625 19.8567 56.4855 20.4046 56.2232 20.8706C54.2269 24.4601 53.1812 28.5002 53.1853 32.6075V41.0922C53.1853 41.6545 52.962 42.1938 52.5643 42.5914C52.1667 42.989 51.6274 43.2124 51.0651 43.2124V43.2124Z" fill="#85B200"/>
<path d="M67.6825 34.6419L67.4987 34.5806C67.2345 34.4926 66.9903 34.3534 66.78 34.171C66.5696 33.9886 66.3972 33.7665 66.2727 33.5174C66.1482 33.2684 66.0739 32.9973 66.0542 32.7195C66.0344 32.4418 66.0696 32.1629 66.1576 31.8987L66.6026 30.5637C67.9579 26.5312 70.8332 23.1868 74.6167 21.2419C74.8889 21.1027 75.1879 21.0239 75.4933 21.0109C75.7987 20.998 76.1033 21.0512 76.3863 21.1669C76.6692 21.2826 76.9238 21.4581 77.1326 21.6814C77.3415 21.9046 77.4996 22.1703 77.5962 22.4604L77.6574 22.6441C77.8153 23.1299 77.7942 23.6562 77.5977 24.1277C77.4013 24.5992 77.0425 24.9848 76.5864 25.2148C73.8594 26.6325 71.7885 29.0525 70.8094 31.9659L70.3643 33.3009C70.1865 33.8344 69.8041 34.2753 69.3011 34.5268C68.7982 34.7783 68.216 34.8197 67.6825 34.6419V34.6419Z" fill="#85B200"/>
<path d="M128.57 0L114.871 19.076C110.191 25.5927 104.027 30.9015 96.8886 34.5633C89.7502 38.225 81.8425 40.1345 73.8196 40.1336C65.092 40.1337 56.5131 42.3939 48.9185 46.6941C41.3238 50.9944 34.9722 57.1881 30.4822 64.6722L19.9285 82.2599L11.0127 97.1205C10.5722 97.855 9.97791 98.4853 9.27059 98.9681C8.56328 99.4509 7.75976 99.7747 6.91532 99.9173C6.07089 100.06 5.2056 100.018 4.37898 99.7939C3.55236 99.5701 2.78405 99.1699 2.12691 98.6207C1.46977 98.0716 0.939398 97.3866 0.572299 96.6129C0.2052 95.8392 0.0100851 94.9951 0.000380687 94.1388C-0.00932368 93.2825 0.166613 92.4342 0.516084 91.6524C0.865555 90.8705 1.38026 90.1737 2.02479 89.6098L15.4941 77.8255L24.6815 60.2849C29.2671 51.5323 36.1602 44.2012 44.6142 39.0858C53.0681 33.9705 62.7606 31.2658 72.6418 31.2649C85.8228 31.2648 98.5512 26.457 108.441 17.7429L128.57 0Z" fill="#85B200"/>
<path d="M19.9285 82.2598L11.0127 97.1204C10.5722 97.8549 9.97791 98.4852 9.27059 98.968C8.56328 99.4508 7.75976 99.7746 6.91532 99.9172C6.07089 100.06 5.2056 100.018 4.37898 99.7938C3.55236 99.57 2.78405 99.1698 2.12691 98.6206C1.46977 98.0715 0.939398 97.3865 0.572299 96.6128C0.2052 95.8391 0.0100851 94.995 0.000380687 94.1387C-0.00932368 93.2824 0.166613 92.4341 0.516084 91.6523C0.865555 90.8704 1.38026 90.1736 2.02479 89.6097L15.4941 77.8254L19.9285 82.2598Z" fill="#719600"/>
</svg>
