<svg width="100" height="100" viewBox="0 0 100 100" fill="none" xmlns="http://www.w3.org/2000/svg">
<g clip-path="url(#clip0_102_1043)">
<path d="M84.3734 4.02422V95.976C84.3734 98.1992 82.5727 100 80.3492 100H12.6531C10.4299 100 8.62891 98.1994 8.62891 95.976V4.02422C8.62891 1.80078 10.4297 0 12.6531 0H29.3051V5.825C29.3051 6.9377 30.2064 7.83711 31.3172 7.83711H61.8865C62.9973 7.83711 63.8986 6.9377 63.8986 5.825V0H80.3494C82.5725 0 84.3734 1.80078 84.3734 4.02422V4.02422Z" fill="#FEB618"/>
<path d="M84.3746 4.02422V95.976C84.3746 98.1992 82.5719 100 80.3504 100H76.3887C78.61 100 80.4129 98.1994 80.4129 95.976V4.02422C80.4127 1.80078 78.61 0 76.3887 0H80.3504C82.5717 0 84.3746 1.80078 84.3746 4.02422V4.02422Z" fill="#FB9927"/>
<path d="M84.3746 22.9194V45.6679C82.6482 46.5431 80.6965 47.036 78.6281 47.036C71.592 47.036 65.8857 41.3298 65.8857 34.2937C65.8857 27.2554 71.592 21.5513 78.6281 21.5513C80.6965 21.5513 82.6482 22.0442 84.3746 22.9194Z" fill="#FB9927"/>
<path d="M77.8381 7.96982V91.8913C77.8381 92.9335 76.993 93.7786 75.9488 93.7786H17.0535C16.0092 93.7786 15.1621 92.9335 15.1621 91.8913V7.96982C15.1621 6.92764 16.0092 6.08057 17.0535 6.08057H29.3211C29.4459 7.07256 30.293 7.83721 31.317 7.83721H61.8863C62.9105 7.83721 63.7576 7.07256 63.8822 6.08057H75.9486C76.993 6.08057 77.8381 6.92764 77.8381 7.96982V7.96982Z" fill="#F8F3F1"/>
<path d="M26.8838 6.08057V11.644C26.8838 12.7548 27.7852 13.6562 28.8959 13.6562H30.0387V16.3522C30.0387 18.9298 32.1352 21.0263 34.7127 21.0263H58.2902C60.8678 21.0263 62.9643 18.9298 62.9643 16.3522V13.656H64.107C65.2178 13.656 66.1191 12.7546 66.1191 11.6438V6.08057H26.8838ZM59.9461 16.3522C59.9461 17.2657 59.2037 18.0081 58.2902 18.0081H34.7127C33.7992 18.0081 33.0568 17.2657 33.0568 16.3522V13.656H59.9461V16.3522Z" fill="#EFE2DD"/>
<path d="M77.8399 7.96968V91.8906C77.8399 92.9331 76.9936 93.7794 75.951 93.7794H71.5781C72.6207 93.7794 73.467 92.9331 73.467 91.8906V7.96968C73.467 6.9271 72.6207 6.08081 71.5781 6.08081H75.9508C76.9936 6.08081 77.8399 6.9269 77.8399 7.96968V7.96968Z" fill="#EFE2DD"/>
<path d="M70.868 28.235H22.135C21.3016 28.235 20.626 27.5594 20.626 26.726C20.626 25.8926 21.3016 25.217 22.135 25.217H70.868C71.7014 25.217 72.377 25.8926 72.377 26.726C72.377 27.5594 71.7014 28.235 70.868 28.235Z" fill="#EFE2DD"/>
<path d="M23.4033 86.569C22.6058 86.569 21.9396 85.944 21.8976 85.1386C21.8542 84.3063 22.4937 83.5964 23.3261 83.553C24.423 83.4958 25.5031 83.2364 26.5173 82.812C26.4783 82.4149 26.4896 82.0052 26.5533 81.5911C26.9325 79.1181 28.145 76.7929 29.9673 75.0434C31.7013 73.379 33.3345 73.6845 34.2849 74.5259C35.1581 75.2991 35.489 76.5288 35.1277 77.6587C34.4173 79.88 33.0681 81.8403 31.3228 83.3536C31.7671 83.185 32.1546 82.9413 32.2923 82.8503C33.0593 82.3427 34.2052 81.7165 35.2976 82.1384C35.5954 82.2534 36.0865 82.5311 36.3794 83.1657C36.4931 83.1345 36.6298 83.0843 36.7714 83.0104C37.6105 82.5731 38.4134 82.0534 39.1583 81.4659C39.8548 80.9169 40.7782 80.8229 41.5685 81.221C42.2214 81.5501 42.6611 82.1497 42.7849 82.8479C43.4829 82.4817 44.1363 82.0343 44.7327 81.513C45.5396 80.8077 46.739 80.7626 47.5845 81.4059C50.0566 83.2858 53.9308 82.9417 57.3679 82.4716C58.1946 82.3583 58.9546 82.9364 59.0675 83.7622C59.1804 84.588 58.6027 85.3489 57.7769 85.4618C53.9374 85.9874 49.5966 86.3507 46.2632 84.1657C45.422 84.8364 44.5029 85.3999 43.5238 85.845C43.2402 85.9741 42.5759 86.2764 41.7986 86.1266C40.981 85.9696 40.3417 85.3835 40.023 84.5731C39.4261 84.9811 38.8048 85.3536 38.1659 85.6866C37.7472 85.905 36.2796 86.5724 34.9786 85.9968C34.615 85.8358 34.3074 85.5966 34.0693 85.2946C34.0339 85.3171 33.9966 85.3411 33.9575 85.3671C31.6546 86.8911 29.3359 86.9325 27.8404 85.5401C26.4702 86.1294 24.9964 86.4882 23.4827 86.5671C23.4564 86.5684 23.4296 86.569 23.4033 86.569V86.569ZM39.8029 83.2386C39.8027 83.2403 39.8027 83.2421 39.8027 83.2438C39.8027 83.2415 39.8029 83.2397 39.8029 83.2386ZM32.0974 77.1827C32.0843 77.1948 32.0708 77.2075 32.0572 77.2206C31.0988 78.1407 30.3689 79.2747 29.9271 80.5087C30.872 79.554 31.6255 78.4224 32.0974 77.1827Z" fill="#EFE2DD"/>
<path d="M38.3098 48.4274H38.1057C37.2723 48.4274 36.5967 47.7518 36.5967 46.9184C36.5967 46.085 37.2723 45.4094 38.1057 45.4094H38.3098C39.1432 45.4094 39.8188 46.085 39.8188 46.9184C39.8188 47.7518 39.1432 48.4274 38.3098 48.4274Z" fill="#EFE2DD"/>
<path d="M43.0871 48.4274H42.883C42.0496 48.4274 41.374 47.7518 41.374 46.9184C41.374 46.085 42.0496 45.4094 42.883 45.4094H43.0871C43.9205 45.4094 44.5961 46.085 44.5961 46.9184C44.5961 47.7518 43.9205 48.4274 43.0871 48.4274Z" fill="#EFE2DD"/>
<path d="M47.8635 48.4274H47.6594C46.826 48.4274 46.1504 47.7518 46.1504 46.9184C46.1504 46.085 46.826 45.4094 47.6594 45.4094H47.8635C48.6969 45.4094 49.3725 46.085 49.3725 46.9184C49.3725 47.7518 48.6969 48.4274 47.8635 48.4274Z" fill="#EFE2DD"/>
<path d="M52.6398 48.4274H52.4357C51.6023 48.4274 50.9268 47.7518 50.9268 46.9184C50.9268 46.085 51.6023 45.4094 52.4357 45.4094H52.6398C53.4732 45.4094 54.1488 46.085 54.1488 46.9184C54.1488 47.7518 53.4732 48.4274 52.6398 48.4274Z" fill="#EFE2DD"/>
<path d="M70.4232 42.5089H37.5588C36.7254 42.5089 36.0498 41.8334 36.0498 41C36.0498 40.1666 36.7254 39.491 37.5588 39.491H70.4232C71.2566 39.491 71.9322 40.1666 71.9322 41C71.9324 41.8334 71.2566 42.5089 70.4232 42.5089Z" fill="#EFE2DD"/>
<path d="M46.4168 36.8422H37.5588C36.7254 36.8422 36.0498 36.1666 36.0498 35.3332C36.0498 34.4998 36.7254 33.8242 37.5588 33.8242H46.4168C47.2502 33.8242 47.9258 34.4998 47.9258 35.3332C47.9258 36.1666 47.2502 36.8422 46.4168 36.8422Z" fill="#EFE2DD"/>
<path d="M38.3098 68.5905H38.1057C37.2723 68.5905 36.5967 67.9149 36.5967 67.0815C36.5967 66.2481 37.2723 65.5725 38.1057 65.5725H38.3098C39.1432 65.5725 39.8188 66.2481 39.8188 67.0815C39.8189 67.9149 39.1432 68.5905 38.3098 68.5905Z" fill="#EFE2DD"/>
<path d="M43.0871 68.5905H42.883C42.0496 68.5905 41.374 67.9149 41.374 67.0815C41.374 66.2481 42.0496 65.5725 42.883 65.5725H43.0871C43.9205 65.5725 44.5961 66.2481 44.5961 67.0815C44.5961 67.9149 43.9205 68.5905 43.0871 68.5905Z" fill="#EFE2DD"/>
<path d="M47.8635 68.5905H47.6594C46.826 68.5905 46.1504 67.9149 46.1504 67.0815C46.1504 66.2481 46.826 65.5725 47.6594 65.5725H47.8635C48.6969 65.5725 49.3725 66.2481 49.3725 67.0815C49.3727 67.9149 48.6969 68.5905 47.8635 68.5905Z" fill="#EFE2DD"/>
<path d="M52.6398 68.5905H52.4357C51.6023 68.5905 50.9268 67.9149 50.9268 67.0815C50.9268 66.2481 51.6023 65.5725 52.4357 65.5725H52.6398C53.4732 65.5725 54.1488 66.2481 54.1488 67.0815C54.1488 67.9149 53.4732 68.5905 52.6398 68.5905Z" fill="#EFE2DD"/>
<path d="M70.4232 62.6718H37.5588C36.7254 62.6718 36.0498 61.9962 36.0498 61.1628C36.0498 60.3294 36.7254 59.6538 37.5588 59.6538H70.4232C71.2566 59.6538 71.9322 60.3294 71.9322 61.1628C71.9324 61.9962 71.2566 62.6718 70.4232 62.6718Z" fill="#EFE2DD"/>
<path d="M46.4168 57.0053H37.5588C36.7254 57.0053 36.0498 56.3297 36.0498 55.4963C36.0498 54.6629 36.7254 53.9873 37.5588 53.9873H46.4168C47.2502 53.9873 47.9258 54.6629 47.9258 55.4963C47.9258 56.3297 47.2502 57.0053 46.4168 57.0053Z" fill="#EFE2DD"/>
<path d="M58.2904 19.2153H34.7123C32.135 19.2153 30.0381 17.1186 30.0381 14.5411V9.43013C30.0381 8.59673 30.7137 7.92114 31.5471 7.92114C32.3805 7.92114 33.0561 8.59673 33.0561 9.43013V14.5413C33.0561 15.4543 33.799 16.1973 34.7121 16.1973H58.2902C59.2033 16.1973 59.9463 15.4543 59.9463 14.5413V9.43013C59.9463 8.59673 60.6219 7.92114 61.4553 7.92114C62.2887 7.92114 62.9643 8.59673 62.9643 9.43013V14.5413C62.9645 17.1186 60.8676 19.2153 58.2904 19.2153Z" fill="#FCA62F"/>
<path d="M64.1072 10.6373H28.8959C27.7846 10.6373 26.8838 9.73652 26.8838 8.6252V0H66.1191V8.6252C66.1191 9.73633 65.2183 10.6373 64.1072 10.6373Z" fill="#12C65A"/>
<path d="M66.1193 0V8.62578C66.1193 9.73652 65.218 10.6379 64.1072 10.6379H60.1455C61.2562 10.6379 62.1576 9.73652 62.1576 8.62578V0H66.1193Z" fill="#0FAD4E"/>
<path d="M34.0574 6.82778H33.8635C33.0301 6.82778 32.3545 6.1522 32.3545 5.3188C32.3545 4.4854 33.0301 3.80981 33.8635 3.80981H34.0574C34.8908 3.80981 35.5664 4.4854 35.5664 5.3188C35.5664 6.1522 34.8908 6.82778 34.0574 6.82778Z" fill="white"/>
<path d="M59.1404 6.82778H58.9465C58.1131 6.82778 57.4375 6.1522 57.4375 5.3188C57.4375 4.4854 58.1131 3.80981 58.9465 3.80981H59.1404C59.9738 3.80981 60.6494 4.4854 60.6494 5.3188C60.6494 6.1522 59.9738 6.82778 59.1404 6.82778Z" fill="white"/>
<path d="M78.6287 43.492C85.6659 43.492 91.3707 37.7873 91.3707 30.75C91.3707 23.7128 85.6659 18.0081 78.6287 18.0081C71.5915 18.0081 65.8867 23.7128 65.8867 30.75C65.8867 37.7873 71.5915 43.492 78.6287 43.492Z" fill="#12C65A"/>
<path d="M91.3711 30.7506C91.3711 37.7868 85.6668 43.493 78.6287 43.493C77.9627 43.493 77.3088 43.4426 76.6689 43.3442C82.7756 42.4004 87.4516 37.1209 87.4516 30.7506C87.4516 24.3784 82.7756 19.1006 76.6689 18.159C77.3088 18.0584 77.9627 18.0081 78.6287 18.0081C85.6668 18.0081 91.3711 23.7124 91.3711 30.7506V30.7506Z" fill="#0FAD4E"/>
<path d="M75.8487 36.2834C75.4626 36.2834 75.0763 36.1359 74.7817 35.8414L72.4343 33.4939C71.8448 32.9046 71.8448 31.9492 72.4343 31.3597C73.0235 30.7705 73.979 30.7705 74.5685 31.3597L75.8487 32.64L82.83 25.6587C83.4192 25.0695 84.3747 25.0695 84.9642 25.6587C85.5536 26.248 85.5536 27.2035 84.9642 27.7929L76.9159 35.8412C76.621 36.1359 76.2349 36.2834 75.8487 36.2834Z" fill="white"/>
<path d="M29.8771 43.1803H24.0422C23.4865 43.1803 23.0361 42.7299 23.0361 42.1743V36.3393C23.0361 35.7836 23.4865 35.3333 24.0422 35.3333H29.8771C30.4328 35.3333 30.8832 35.7836 30.8832 36.3393V42.1743C30.8832 42.7297 30.4328 43.1803 29.8771 43.1803Z" fill="#B5CCBE"/>
<path d="M29.8771 63.3434H24.0422C23.4865 63.3434 23.0361 62.893 23.0361 62.3374V56.5024C23.0361 55.9467 23.4865 55.4963 24.0422 55.4963H29.8771C30.4328 55.4963 30.8832 55.9467 30.8832 56.5024V62.3374C30.8832 62.893 30.4328 63.3434 29.8771 63.3434Z" fill="#B5CCBE"/>
</g>
<defs>
<clipPath id="clip0_102_1043">
<rect width="100" height="100" fill="white"/>
</clipPath>
</defs>
</svg>
