<svg width="100" height="100" viewBox="0 0 100 100" fill="none" xmlns="http://www.w3.org/2000/svg">
<g clip-path="url(#clip0_102_1077)">
<path d="M99.9764 92.9073L92.1201 49.6239C92.0418 49.1918 91.7739 48.8176 91.3899 48.6041L71.616 37.6061C71.3594 37.4631 71.0717 37.4062 70.7891 37.4281L74.3865 83.836L74.266 83.8899L97.9309 94.5066C98.1235 94.5927 98.3282 94.6353 98.5319 94.6353C98.8543 94.6353 99.1739 94.5292 99.4366 94.3236C99.8659 93.9884 100.073 93.4431 99.9764 92.9073Z" fill="#28A248"/>
<path d="M49.9997 48.1203L29.776 37.5869C29.5336 37.4605 29.2649 37.409 29.0002 37.4267C29.0703 37.4224 29.1408 37.4228 29.2108 37.4283L25.6133 83.8362L49.3987 94.5069C49.5907 94.5929 49.7956 94.6356 49.9997 94.6356V48.1203V48.1203Z" fill="#32BD56"/>
<path d="M29.211 37.4284C28.9284 37.4065 28.6407 37.4633 28.384 37.6061L8.60995 48.6042C8.22597 48.8177 7.958 49.1917 7.87968 49.6239L0.0236089 92.9074C-0.0736569 93.443 0.134156 93.9883 0.563258 94.3238C0.826345 94.5295 1.14568 94.6355 1.46795 94.6355C1.67166 94.6355 1.87654 94.5931 2.06893 94.5068L25.6049 83.948L29.211 37.4284Z" fill="#56D777"/>
<path d="M70.7889 37.4275C70.5944 37.4425 70.402 37.4943 70.2237 37.5873L50 48.1205V94.6358C50 94.6358 50 94.6358 50.0002 94.6358C50.2043 94.6358 50.4094 94.5932 50.6012 94.5071L74.3866 83.8364L70.7889 37.4275Z" fill="#2FB652"/>
<path d="M5.49922 62.7409L3.90332 71.5337L27.535 59.0521L28.0836 51.9741L28.1747 50.8003L5.49922 62.7409Z" fill="#FFDB56"/>
<path d="M27.7473 56.3076L27.5346 59.0522L3.90291 71.5338L0.0236089 92.9075C-0.0736569 93.443 0.134156 93.9884 0.563258 94.3239C0.826345 94.5296 1.14568 94.6356 1.46795 94.6356C1.67166 94.6356 1.87654 94.5932 2.06893 94.5069L25.6049 83.9481L27.7473 56.3076Z" fill="#A8EEFC"/>
<path d="M50.0055 53.922L28.1738 50.8003L27.5342 59.0521L49.9997 93.1691V80.7632L36.594 59.6542L50.0055 61.2583V53.922Z" fill="#FEB618"/>
<path d="M89.8334 47.7385L80.3344 42.4551L71.3418 44.5563L71.4543 46.0086L71.8984 51.7379L89.8334 47.7385Z" fill="#FEB618"/>
<path d="M72.6958 62.0267L71.8442 51.0406L71.3416 44.5564L50.0059 53.922V61.2584L63.9426 55.1978L72.6958 62.0267Z" fill="#FFDB56"/>
<path d="M99.9766 92.9075L98.0034 82.0352L71.8984 51.738L72.6961 62.0267L99.4676 94.2965C99.8747 93.9592 100.071 93.4295 99.9766 92.9075Z" fill="#FEB618"/>
<path d="M50.0938 5.36426C38.7729 5.36426 29.5625 14.567 29.5625 25.8787C29.5625 32.876 32.8846 40.3885 39.4367 48.2073C44.2491 53.9501 48.9959 57.6436 49.1957 57.7981C49.4602 58.0026 49.777 58.1048 50.094 58.1048C50.4108 58.1048 50.7278 58.0026 50.9922 57.7981C51.1918 57.6436 55.9389 53.9501 60.7512 48.2073C67.3034 40.3885 70.6255 32.8762 70.6255 25.8787C70.6251 14.567 61.4147 5.36426 50.0938 5.36426ZM57.6973 25.8786C57.6973 30.0743 54.293 33.4758 50.0938 33.4758C45.8946 33.4758 42.4903 30.0745 42.4903 25.8786C42.4903 21.6826 45.8946 18.2813 50.0938 18.2813C54.293 18.2813 57.6973 21.6828 57.6973 25.8786Z" fill="#FF4415"/>
<path d="M50.0936 5.36426C49.1963 5.36426 48.3125 5.42246 47.4453 5.53457C57.5201 6.83672 65.3285 15.4635 65.3285 25.8787C65.3285 32.876 62.0065 40.3885 55.4543 48.2073C52.3596 51.9003 49.2941 54.7438 47.4455 56.3458C48.4717 57.2349 49.1244 57.7431 49.1955 57.7981C49.46 58.0026 49.7768 58.1048 50.0938 58.1048C50.4106 58.1048 50.7275 58.0026 50.992 57.7981C51.1916 57.6436 55.9387 53.9501 60.751 48.2073C67.3032 40.3885 70.6252 32.8762 70.6252 25.8787C70.6248 14.567 61.4145 5.36426 50.0936 5.36426Z" fill="#E13E15"/>
<path d="M50.6012 94.5068L59.4459 90.5388L50 80.7632V94.6355C50 94.6355 50 94.6355 50.0002 94.6355C50.2043 94.6355 50.4092 94.5931 50.6012 94.5068Z" fill="#FFBF33"/>
<path d="M92.1203 49.6238C92.042 49.1918 91.7741 48.8176 91.3901 48.6041L89.8334 47.7383L71.8984 51.7377L98.0032 82.0348L92.1203 49.6238Z" fill="#1EA4E9"/>
<path d="M49.9998 94.6355C50 94.6355 50 94.6355 49.9998 94.6355V93.1691L27.5346 59.052L25.6133 83.8362L49.3987 94.507C49.5907 94.5931 49.7955 94.6355 49.9998 94.6355Z" fill="#1EA4E9"/>
</g>
<defs>
<clipPath id="clip0_102_1077">
<rect width="100" height="100" fill="white"/>
</clipPath>
</defs>
</svg>
