<svg width="87" height="71" viewBox="0 0 87 71" fill="none" xmlns="http://www.w3.org/2000/svg">
<path d="M86.8986 43.3844C84.0063 20.246 62.7961 4.82033 52.5525 -0.000183105L48.9373 7.23059L67.014 36.1537C48.2139 34.7075 44.7192 47.6024 45.3219 54.2306C48.9373 68.6921 60.9884 70.4998 67.014 70.4998C84.3679 70.4998 87.5012 52.4229 86.8986 43.3844Z" fill="#F9F9F9"/>
<path d="M41.6389 43.3844C38.7466 20.246 17.5363 4.82033 7.29272 -0.000183105L3.67753 7.23059L21.7543 36.1537C2.95411 34.7075 -0.54055 47.6024 0.0621452 54.2306C3.67753 68.6921 15.7287 70.4998 21.7543 70.4998C39.1081 70.4998 42.2414 52.4229 41.6389 43.3844Z" fill="#F9F9F9"/>
</svg>
