<svg width="33" height="28" viewBox="0 0 33 28" fill="none" xmlns="http://www.w3.org/2000/svg">
<g filter="url(#filter0_d_102_1125)">
<path d="M10.5556 15.709C9.37066 15.709 8.41016 16.6695 8.41016 17.8544C8.41016 19.0393 9.3707 19.9998 10.5556 19.9998C11.7404 19.9998 12.7009 19.0392 12.7009 17.8544C12.701 16.6695 11.7404 15.709 10.5556 15.709ZM10.5556 19.0463C9.89729 19.0463 9.36368 18.5127 9.36368 17.8544C9.36368 17.1962 9.89729 16.6626 10.5556 16.6626C11.2138 16.6626 11.7474 17.1962 11.7474 17.8544C11.7475 18.5127 11.2138 19.0463 10.5556 19.0463Z" fill="#181D19"/>
<path d="M19.6141 15.709C18.4293 15.709 17.4688 16.6695 17.4688 17.8544C17.4688 19.0393 18.4293 19.9998 19.6141 19.9998C20.799 19.9998 21.7595 19.0392 21.7595 17.8544C21.7595 16.6695 20.799 15.709 19.6141 15.709ZM19.6141 19.0463C18.9559 19.0463 18.4223 18.5127 18.4223 17.8544C18.4223 17.1962 18.9559 16.6626 19.6141 16.6626C20.2724 16.6626 20.806 17.1962 20.806 17.8544C20.8061 18.5127 20.2724 19.0463 19.6141 19.0463Z" fill="#181D19"/>
<path d="M24.4529 3.19432C24.3537 3.08587 24.2178 3.01797 24.0715 3.0036L8.55306 2.78906L8.12398 1.47796C7.8217 0.601505 7.00095 0.00980987 6.0739 0H4.47676C4.21344 0 4 0.213445 4 0.47676C4 0.740075 4.21344 0.953519 4.47676 0.953519H6.0739C6.59227 0.964972 7.04873 1.29782 7.21814 1.78786L10.2456 10.9178L10.0072 11.4661C9.74133 12.1516 9.82118 12.9233 10.2217 13.5399C10.6185 14.1456 11.2859 14.5194 12.0096 14.5411H21.2826C21.5459 14.5411 21.7593 14.3277 21.7593 14.0644C21.7593 13.8011 21.5459 13.5876 21.2826 13.5876H12.0096C11.6009 13.5774 11.2247 13.3624 11.0084 13.0155C10.7945 12.6728 10.7505 12.2507 10.8892 11.8713L11.0799 11.4422L21.1157 10.3933C22.218 10.2719 23.1248 9.47013 23.3803 8.39091L24.5245 3.59949C24.5761 3.46152 24.5487 3.30634 24.4529 3.19432ZM22.4506 8.17641C22.2958 8.87113 21.706 9.38358 20.9965 9.43983L11.0799 10.4649L8.86296 3.74258L23.4756 3.95712L22.4506 8.17641Z" fill="#181D19"/>
<circle cx="25" cy="4" r="4" fill="#DC2825"/>
</g>
<defs>
<filter id="filter0_d_102_1125" x="0" y="0" width="33" height="28" filterUnits="userSpaceOnUse" color-interpolation-filters="sRGB">
<feFlood flood-opacity="0" result="BackgroundImageFix"/>
<feColorMatrix in="SourceAlpha" type="matrix" values="0 0 0 0 0 0 0 0 0 0 0 0 0 0 0 0 0 0 127 0" result="hardAlpha"/>
<feOffset dy="4"/>
<feGaussianBlur stdDeviation="2"/>
<feComposite in2="hardAlpha" operator="out"/>
<feColorMatrix type="matrix" values="0 0 0 0 0 0 0 0 0 0 0 0 0 0 0 0 0 0 0.25 0"/>
<feBlend mode="normal" in2="BackgroundImageFix" result="effect1_dropShadow_102_1125"/>
<feBlend mode="normal" in="SourceGraphic" in2="effect1_dropShadow_102_1125" result="shape"/>
</filter>
</defs>
</svg>
